<svg width="95" height="55" viewBox="0 0 95 55" fill="none" xmlns="http://www.w3.org/2000/svg">
<g clip-path="url(#clip0_98_184)">
<path d="M21.3808 47.4748H12.1382C8.74533 47.4748 5.93745 46.3127 3.77304 43.9883C2.5446 42.6809 1.66713 41.2281 1.08216 39.572C0.497182 37.9159 0.175445 36.376 0.0584501 34.9233C-0.234038 30.7976 0.52643 26.4394 2.31061 21.8488C4.03628 17.4035 6.49318 13.5683 9.71054 10.2852C10.939 9.03585 12.1967 7.93178 13.5129 6.94393C14.8291 5.98514 16.116 5.14256 17.3445 4.4162C19.4796 3.22497 21.4393 2.35334 23.165 1.8013C23.5745 1.68508 23.9254 1.56887 24.2472 1.4817C25.3294 1.1621 26.4408 1.97563 26.4408 3.10875V3.37024C26.4408 4.76485 25.5634 6.01419 24.2472 6.47906H24.2179C22.9895 6.91488 21.4978 7.61218 19.7429 8.60003C18.6607 9.21018 17.5492 9.93654 16.4085 10.7791C15.2971 11.6217 14.2149 12.5805 13.1619 13.6555C10.471 16.4157 8.33585 19.7569 6.81492 23.6212C5.26473 27.6307 4.62126 31.2625 4.8845 34.5456C4.943 35.5625 5.17699 36.6375 5.55722 37.7416C5.93745 38.8747 6.52243 39.8335 7.34139 40.6761C8.54059 41.9835 10.1493 42.6518 12.1382 42.6518H19.6551C20.5911 42.6518 21.3516 41.8964 21.3516 40.9666V29.6354C21.3516 28.7057 20.5911 27.9503 19.6551 27.9503H16.9935H16.2623C15.3263 27.9503 14.5658 27.1949 14.5658 26.2651V24.8414C14.5658 23.9117 15.3263 23.1563 16.2623 23.1563H16.9935H23.7792H24.4812C25.4171 23.1563 26.1776 23.9117 26.1776 24.8414V25.5388V45.0633V45.7897C26.1776 46.7194 25.4171 47.4748 24.4812 47.4748H21.3808Z" fill="#85586F"/>
<path d="M32.4661 10.6048V8.62906C32.4661 8.36757 32.6708 8.16418 32.934 8.16418H36.8534C37.1166 8.16418 37.3214 8.36757 37.3214 8.62906V10.6048V44.889V46.8356C37.3214 47.0971 37.1166 47.3005 36.8534 47.3005H32.934C32.6708 47.3005 32.4661 47.0971 32.4661 46.8356V44.889V10.6048Z" fill="#85586F"/>
<path d="M43.7561 36.9572H41.8549C41.5624 36.9572 41.3577 36.7247 41.3577 36.4632V32.6571C41.3577 32.3666 41.5917 32.1632 41.8549 32.1632H43.7561H43.7853C44.0778 32.1632 44.2825 31.9307 44.2825 31.6693L44.3118 24.4347C44.3118 21.936 44.5165 19.2921 44.9553 16.5029C45.394 13.7136 45.9497 11.1568 46.6809 8.8906C47.4122 6.56625 48.3481 4.64866 49.4888 3.13783C50.6295 1.627 51.9457 0.871582 53.4667 0.871582H54.3734C54.6659 0.871582 55.1046 1.24929 55.1046 1.53983L54.9876 4.9392C54.9876 5.22974 54.6074 5.66556 54.3149 5.66556H53.4082C52.9402 5.66556 52.2382 7.20544 51.2438 10.2852C50.571 12.3481 50.0738 14.6434 49.6936 17.2002C49.3133 19.7569 49.1378 22.1685 49.1378 24.4057L49.0793 31.6402C49.0793 31.9307 49.3133 32.1341 49.5766 32.1341H49.9276H51.858C52.1505 32.1341 52.3552 32.3666 52.3552 32.6281V36.4342C52.3552 36.7247 52.1212 36.9281 51.858 36.9281H49.9276H49.5473C49.2548 36.9281 49.0501 37.1605 49.0501 37.422L48.9038 54.2736C48.9038 54.5641 48.6699 54.7675 48.4066 54.7675L44.6043 54.7385C44.3118 54.7385 44.1071 54.506 44.1071 54.2445L44.224 37.422C44.2533 37.1896 44.0193 36.9572 43.7561 36.9572Z" fill="#85586F"/>
<path d="M69.495 42.4775H71.484C71.7472 42.4775 71.9519 42.6809 71.9519 42.9424V46.8357C71.9519 47.0971 71.7472 47.3005 71.484 47.3005H69.495C68.0034 47.3005 66.6579 46.5742 65.5172 45.1214C64.3765 43.6687 63.4405 41.8092 62.7093 39.5139C61.9781 37.3349 61.4224 34.8943 61.0129 32.1922C60.6034 29.4902 60.3987 26.9043 60.3987 24.4347V13.4521C60.3987 13.1906 60.1939 12.9873 59.9307 12.9873H57.2983C57.0351 12.9873 56.8303 12.7839 56.8303 12.5224V8.65816C56.8303 8.39667 57.0351 8.19329 57.2983 8.19329H59.9307C60.1939 8.19329 60.3987 7.98991 60.3987 7.72842V2.41146C60.3987 2.23713 60.4864 2.09186 60.6619 2.0047L64.5812 0.0289953C64.8737 -0.116277 65.254 0.0871042 65.254 0.435757V7.72842C65.254 7.98991 65.4587 8.19329 65.7219 8.19329H69.2026C69.4658 8.19329 69.6705 8.39667 69.6705 8.65816V12.5514C69.6705 12.8129 69.4658 13.0163 69.2026 13.0163H65.7219C65.4587 13.0163 65.254 13.2197 65.254 13.4812V24.4057C65.254 26.6428 65.4295 28.9962 65.8097 31.4659C66.1607 33.9064 66.6579 36.1146 67.3014 38.0322C68.2666 40.9957 68.9978 42.4775 69.495 42.4775Z" fill="#85586F"/>
<path d="M74.2919 10.5757V8.62906C74.2919 8.36757 74.4966 8.16418 74.7599 8.16418H78.7084C78.9717 8.16418 79.1764 8.36757 79.1764 8.62906V10.5757C79.1764 17.694 79.6151 23.8536 80.4926 29.0543C81.2823 33.9645 82.54 38.3227 84.2365 42.1869C84.2949 42.3612 84.4704 42.4484 84.6459 42.4484C84.8214 42.4484 84.9969 42.3322 85.0554 42.1869C86.7226 38.3227 87.9803 33.9645 88.8285 29.0543C89.706 23.8245 90.1447 17.665 90.1447 10.5757V8.62906C90.1447 8.36757 90.3494 8.16418 90.6127 8.16418H94.532C94.7953 8.16418 95 8.36757 95 8.62906V10.5757C95 17.8684 94.532 24.3184 93.5961 29.8678C92.5723 35.9111 91.2854 40.7632 89.7645 44.4822C88.2435 48.114 86.1961 51.5715 83.5637 54.8256C83.476 54.9418 83.3297 54.9999 83.2127 54.9999H78.8839C78.6207 54.9999 78.4159 54.7965 78.4159 54.535V50.6417C78.4159 50.3802 78.6207 50.1769 78.8839 50.1769C80.6681 50.2059 81.5748 50.1769 81.6041 50.1769C81.6333 50.1478 81.9843 49.4214 82.6863 47.9397C82.8325 47.6491 82.5985 47.3005 82.2768 47.3005H81.6041C81.4286 47.3005 81.2823 47.2133 81.1946 47.039L80.6681 45.9349C78.3867 41.3153 76.7488 35.9693 75.7251 29.8969C74.7598 24.3184 74.2919 17.8974 74.2919 10.5757Z" fill="#85586F"/>
<path d="M77.9187 53.8959C77.9187 54.0412 77.8894 54.2155 77.8602 54.3608C77.8309 54.4189 77.7724 54.477 77.6847 54.448C77.6262 54.4189 77.5677 54.3608 77.5969 54.2736C77.8309 53.402 77.2167 52.5013 76.4855 52.0655C75.725 51.6006 74.672 51.4263 73.9993 51.3101L73.8531 51.281C72.5954 51.281 70.3432 50.3513 70.548 48.7533C70.5772 48.5209 70.6942 48.4046 70.8112 48.3465C70.9867 48.2594 71.1914 48.2594 71.3669 48.3175C72.0104 48.579 72.0982 49.3344 72.3614 49.9155C72.6539 50.5256 73.2389 50.9033 73.9116 51.0195L74.0578 51.0486C74.7598 51.1648 75.842 51.3682 76.6317 51.8331C77.3044 52.2689 77.9187 53.0533 77.9187 53.8959Z" fill="#8E9B5A"/>
<path d="M73.7946 52.0655C73.7946 52.1236 73.7653 52.2107 73.7068 52.2979C73.5021 52.5884 72.9463 53.0533 72.4491 53.0824C72.0981 53.1114 71.6886 52.9661 71.5716 52.5594C71.5424 52.3851 71.6009 52.1526 71.7471 51.9783C71.8641 51.833 72.0981 51.6296 72.5369 51.6296C73.0633 51.6587 73.7068 51.7749 73.7946 52.0364C73.7653 52.0073 73.7946 52.0364 73.7946 52.0655Z" fill="#C5D882"/>
<path d="M74.8183 52.9662C74.8183 52.9953 74.8183 53.0243 74.7891 53.0534C74.7306 53.2568 74.5551 53.4311 74.3211 53.4021C74.2041 53.4021 74.1163 53.3149 74.0286 53.1987C73.9701 53.1115 73.9116 52.9372 73.9993 52.7047C74.1163 52.4433 74.3211 52.1237 74.4673 52.1237C74.5258 52.1237 74.5551 52.1527 74.6136 52.2399C74.7598 52.3851 74.8768 52.7047 74.8183 52.9662Z" fill="#8E9B5A"/>
<path d="M76.5148 50.4676C76.5148 50.5547 76.5148 50.6419 76.4855 50.7C76.4563 50.8162 76.427 50.9034 76.3685 50.9324C76.1638 51.0486 75.7251 50.729 75.3741 50.4385C75.1108 50.177 75.0816 49.8865 75.1108 49.7412C75.1401 49.5378 75.2278 49.3635 75.3448 49.2763C75.6666 49.0729 75.9883 49.2473 76.193 49.4507C76.427 49.7412 76.5148 50.148 76.5148 50.4676Z" fill="#8E9B5A"/>
<path d="M77.6262 50.5838C77.6262 50.8162 77.4799 51.0777 77.363 51.1939C77.3045 51.252 77.2752 51.252 77.2167 51.252C77.0705 51.223 76.9827 50.9324 76.9242 50.7C76.895 50.4966 76.9827 50.3513 77.012 50.2932C77.0997 50.2061 77.1875 50.1479 77.2752 50.1479C77.48 50.1479 77.5969 50.3513 77.5969 50.5257C77.6262 50.5257 77.6262 50.5547 77.6262 50.5838Z" fill="#C5D882"/>
<path d="M36.2392 30.1584C35.4495 30.3328 34.8352 31.1172 34.8645 31.9308C34.8645 32.57 35.2447 33.1801 35.1277 33.8193C35.04 34.3132 34.7182 34.6909 34.4257 35.1268C34.1625 35.5335 33.9285 36.0565 34.1333 36.5214" stroke="#777F46" stroke-width="0.5" stroke-miterlimit="10"/>
<path d="M34.9231 13.1617C34.8646 13.2779 34.7768 13.3941 34.6598 13.4813C34.3381 13.7718 34.0163 13.888 33.6946 13.8299C33.6654 13.8299 33.6361 13.7718 33.6361 13.7427C33.6361 13.7137 33.6946 13.6846 33.7239 13.6846C34.0748 13.7427 34.3966 13.5103 34.5721 13.365C35.0108 12.9873 35.0693 12.3772 35.157 11.767C35.1863 11.6218 35.1863 11.5056 35.2155 11.3603C35.3618 10.4596 35.7128 9.90756 36.3562 9.61702C36.3855 9.58796 36.444 9.61702 36.4732 9.64607C36.5025 9.67512 36.4732 9.73323 36.444 9.73323C35.859 9.99472 35.5373 10.5177 35.391 11.3893C35.3618 11.5056 35.3618 11.6508 35.3325 11.7961C35.2448 12.261 35.157 12.7839 34.9231 13.1617Z" fill="#777F46"/>
<path d="M34.5428 14.5562C34.4843 14.4691 34.4258 14.3819 34.3381 14.3238C34.1041 14.1204 33.8408 14.0042 33.6068 14.0623C33.5776 14.0623 33.5483 14.0914 33.5483 14.1204C33.5483 14.1495 33.5776 14.1785 33.6068 14.1785C33.8701 14.1204 34.1333 14.3238 34.2503 14.411C34.572 14.7015 34.6305 15.1664 34.689 15.6313C34.689 15.7475 34.7183 15.8346 34.7183 15.9509C34.8353 16.6482 35.0985 17.084 35.5958 17.2874C35.625 17.2874 35.6543 17.2874 35.6835 17.2583C35.6835 17.2293 35.6835 17.2002 35.6543 17.1711C35.2155 16.9678 34.9523 16.561 34.8645 15.9218C34.8353 15.8346 34.8353 15.7184 34.8353 15.6313C34.7768 15.2536 34.7183 14.8758 34.5428 14.5562Z" fill="#777F46"/>
<path d="M34.6598 26.3523C34.6013 26.2652 34.5135 26.178 34.4258 26.0908C34.1626 25.8584 33.8701 25.7422 33.6068 25.7712C33.5776 25.7712 33.5483 25.8003 33.5483 25.8584C33.5483 25.8875 33.5776 25.9165 33.6361 25.9165C33.9286 25.8584 34.2211 26.0618 34.3673 26.178C34.7475 26.4976 34.806 27.0496 34.8645 27.5436C34.8645 27.6598 34.8938 27.776 34.923 27.8922C35.04 28.6767 35.3618 29.1415 35.8882 29.403C35.9175 29.4321 35.9467 29.403 35.976 29.374C36.0052 29.3449 35.976 29.3159 35.9467 29.2868C35.4495 29.0544 35.157 28.6186 35.04 27.8632C35.0108 27.7469 35.0108 27.6307 34.9815 27.5145C34.923 27.1368 34.8938 26.701 34.6598 26.3523Z" fill="#777F46"/>
<path d="M34.7183 45.2377C34.6598 45.3539 34.5721 45.4701 34.4551 45.5573C34.1334 45.8478 33.8116 45.9641 33.4899 45.906C33.4606 45.906 33.4314 45.8478 33.4314 45.8188C33.4314 45.7897 33.4899 45.7607 33.5191 45.7607C33.8701 45.8188 34.1919 45.5864 34.3674 45.4411C34.8061 45.0634 34.8646 44.4532 34.9523 43.8431C34.9816 43.6978 34.9816 43.5816 35.0108 43.4363C35.1571 42.5356 35.5081 41.9836 36.1515 41.6931C36.1808 41.664 36.2393 41.6931 36.2685 41.7221C36.2978 41.7512 36.2685 41.8093 36.2393 41.8093C35.6543 42.0708 35.3326 42.5938 35.1863 43.4654C35.1571 43.5816 35.1571 43.7269 35.1278 43.8721C35.0108 44.337 34.9523 44.8309 34.7183 45.2377Z" fill="#777F46"/>
<path d="M34.572 39.02C34.5135 38.9329 34.4258 38.8457 34.338 38.7586C34.0748 38.5261 33.7823 38.4099 33.5191 38.439C33.4898 38.439 33.4606 38.468 33.4606 38.5261C33.4606 38.5552 33.4898 38.5842 33.5483 38.5842C33.8408 38.5261 34.1333 38.7295 34.2795 38.8457C34.6598 39.1653 34.7183 39.7173 34.7768 40.2113C34.7768 40.3275 34.806 40.4437 34.8353 40.5599C34.9523 41.3444 35.274 41.8093 35.8005 42.0708C35.8297 42.0998 35.859 42.0708 35.8882 42.0417C35.9175 42.0126 35.8882 41.9836 35.859 41.9545C35.3617 41.7221 35.0693 41.2863 34.9523 40.5309C34.923 40.4147 34.923 40.2984 34.8938 40.1822C34.8353 39.8045 34.806 39.3687 34.572 39.02Z" fill="#777F46"/>
<path d="M36.5317 10.198C36.5024 10.198 36.4732 10.198 36.4439 10.198C35.9467 10.198 35.5372 9.79128 35.5372 9.29735C35.5372 8.83248 35.8882 8.45477 36.3269 8.39667C36.3269 8.36761 36.3269 8.3095 36.3269 8.28045C36.3269 7.78652 36.7364 7.37976 37.2337 7.37976C37.6724 7.37976 38.0234 7.6703 38.1111 8.07707C38.1404 8.07707 38.1696 8.07707 38.1989 8.07707C38.6961 8.07707 39.1056 8.48383 39.1056 8.97775C39.1056 9.44262 38.7546 9.82033 38.3159 9.87844C38.3159 9.90749 38.3159 9.9656 38.3159 9.99466C38.3159 10.4886 37.9064 10.8953 37.4092 10.8953C36.9704 10.9244 36.6194 10.6048 36.5317 10.198Z" fill="#DCC3E2"/>
<path d="M37.2921 9.73318C36.9704 9.73318 36.7072 9.44263 36.7072 9.12304C36.7072 8.97776 36.7949 8.80344 36.9119 8.71627C37.0289 8.60006 37.1751 8.54195 37.3506 8.571C37.4969 8.571 37.6724 8.65817 37.7601 8.77438C37.8771 8.8906 37.9356 9.03587 37.9064 9.2102C37.8771 9.50074 37.6139 9.73318 37.2921 9.73318Z" fill="#F96E9C"/>
<path d="M31.6765 14.6725C31.6472 14.6725 31.618 14.6725 31.5887 14.6725C31.0915 14.6725 30.682 14.2658 30.682 13.7718C30.682 13.307 31.033 12.9293 31.4717 12.8712C31.4717 12.8421 31.4717 12.784 31.4717 12.7549C31.4717 12.261 31.8812 11.8542 32.3784 11.8542C32.8172 11.8542 33.1682 12.1448 33.2559 12.5516C33.2851 12.5516 33.3144 12.5516 33.3436 12.5516C33.8409 12.5516 34.2504 12.9583 34.2504 13.4522C34.2504 13.9171 33.8994 14.2948 33.4606 14.3529C33.4606 14.382 33.4606 14.4401 33.4606 14.4691C33.4606 14.9631 33.0512 15.3698 32.5539 15.3698C32.1444 15.3698 31.7642 15.0793 31.6765 14.6725Z" fill="#DCC3E2"/>
<path d="M32.4369 14.2077C32.1152 14.2077 31.8519 13.9171 31.8519 13.5975C31.8519 13.4523 31.9397 13.2779 32.0567 13.1908C32.1737 13.0745 32.3199 13.0164 32.4954 13.0455C32.6416 13.0455 32.8171 13.1327 32.9049 13.2489C33.0219 13.3651 33.0804 13.5104 33.0511 13.6847C33.0511 13.9752 32.7879 14.2077 32.4369 14.2077Z" fill="#F96E9C"/>
<path d="M36.1807 17.9266C36.1515 17.9266 36.1222 17.9266 36.093 17.9266C35.5958 17.9266 35.1863 17.5198 35.1863 17.0259C35.1863 16.561 35.5373 16.1833 35.976 16.1252C35.976 16.0961 35.976 16.038 35.976 16.009C35.976 15.515 36.3855 15.1083 36.8827 15.1083C37.3214 15.1083 37.6724 15.3988 37.7602 15.8056C37.7894 15.8056 37.8187 15.8056 37.8479 15.8056C38.3451 15.8056 38.7546 16.2123 38.7546 16.7063C38.7546 17.1711 38.4036 17.5488 37.9649 17.607C37.9649 17.636 37.9649 17.6941 37.9649 17.7232C37.9649 18.2171 37.5554 18.6239 37.0582 18.6239C36.6195 18.6239 36.2685 18.3333 36.1807 17.9266Z" fill="#DCC3E2"/>
<path d="M36.912 17.4617C36.5903 17.4617 36.327 17.1712 36.327 16.8516C36.327 16.7063 36.4148 16.532 36.5318 16.4448C36.6488 16.3286 36.795 16.2705 36.9705 16.2995C37.1167 16.2995 37.2922 16.3867 37.38 16.5029C37.497 16.6191 37.5555 16.7644 37.5262 16.9387C37.5262 17.2293 37.263 17.4617 36.912 17.4617C36.9413 17.4617 36.9413 17.4617 36.912 17.4617Z" fill="#F96E9C"/>
<path d="M31.6765 26.4685C31.6472 26.4685 31.618 26.4685 31.5887 26.4685C31.0915 26.4685 30.682 26.0618 30.682 25.5679C30.682 25.103 31.033 24.7253 31.4717 24.6672C31.4717 24.6381 31.4717 24.58 31.4717 24.551C31.4717 24.057 31.8812 23.6503 32.3784 23.6503C32.8172 23.6503 33.1682 23.9408 33.2559 24.3476C33.2851 24.3476 33.3144 24.3476 33.3436 24.3476C33.8409 24.3476 34.2504 24.7543 34.2504 25.2483C34.2504 25.7131 33.8994 26.0908 33.4606 26.1489C33.4606 26.178 33.4606 26.2361 33.4606 26.2652C33.4606 26.7591 33.0512 27.1659 32.5539 27.1659C32.1444 27.1659 31.7642 26.8753 31.6765 26.4685Z" fill="#DCC3E2"/>
<path d="M32.4369 26.0037C32.1152 26.0037 31.8519 25.7131 31.8519 25.3935C31.8519 25.2483 31.9397 25.0739 32.0567 24.9868C32.1737 24.8706 32.3199 24.8125 32.4954 24.8415C32.6416 24.8415 32.8171 24.9287 32.9049 25.0449C33.0219 25.1611 33.0804 25.3064 33.0511 25.4807C33.0511 25.7422 32.7879 26.0037 32.4369 26.0037Z" fill="#F96E9C"/>
<path d="M36.7657 30.6524C36.7364 30.6524 36.7072 30.6524 36.678 30.6524C36.1807 30.6524 35.7712 30.2456 35.7712 29.7517C35.7712 29.2868 36.1222 28.9091 36.561 28.851C36.561 28.822 36.561 28.7638 36.561 28.7348C36.561 28.2409 36.9704 27.8341 37.4677 27.8341C37.9064 27.8341 38.2574 28.1246 38.3451 28.5314C38.3744 28.5314 38.4036 28.5314 38.4329 28.5314C38.9301 28.5314 39.3396 28.9382 39.3396 29.4321C39.3396 29.897 38.9886 30.2747 38.5499 30.3328C38.5499 30.3618 38.5499 30.4199 38.5499 30.449C38.5499 30.9429 38.1404 31.3497 37.6432 31.3497C37.2044 31.3497 36.8534 31.0591 36.7657 30.6524Z" fill="#DCC3E2"/>
<path d="M37.5261 30.1875C37.2044 30.1875 36.9412 29.897 36.9412 29.5774C36.9412 29.4321 37.0289 29.2578 37.1459 29.1706C37.2629 29.0544 37.4091 28.9963 37.5846 29.0253C37.7309 29.0253 37.9064 29.1125 37.9941 29.2287C38.1111 29.3449 38.1696 29.4902 38.1404 29.6645C38.1404 29.926 37.8479 30.1875 37.5261 30.1875Z" fill="#F96E9C"/>
<path d="M32.0566 38.2356C32.0273 38.2356 31.9981 38.2356 31.9688 38.2356C31.4716 38.2356 31.0621 37.8289 31.0621 37.3349C31.0621 36.8701 31.4131 36.4924 31.8519 36.4343C31.8519 36.4052 31.8519 36.3471 31.8519 36.318C31.8519 35.8241 32.2613 35.4174 32.7586 35.4174C33.1973 35.4174 33.5483 35.7079 33.636 36.1147C33.6653 36.1147 33.6945 36.1147 33.7238 36.1147C34.221 36.1147 34.6305 36.5214 34.6305 37.0154C34.6305 37.4802 34.2795 37.8579 33.8408 37.916C33.8408 37.9451 33.8408 38.0032 33.8408 38.0323C33.8408 38.5262 33.4313 38.9329 32.9341 38.9329C32.4953 38.962 32.1443 38.6424 32.0566 38.2356Z" fill="#DCC3E2"/>
<path d="M32.7879 37.7708C32.4661 37.7708 32.2029 37.4802 32.2029 37.1606C32.2029 37.0154 32.2906 36.841 32.4076 36.7539C32.5246 36.6377 32.6709 36.5795 32.8464 36.6086C32.9926 36.6086 33.1681 36.6958 33.2558 36.812C33.3728 36.9282 33.4313 37.0735 33.4021 37.2478C33.4021 37.5383 33.1388 37.7708 32.7879 37.7708C32.8171 37.7708 32.8171 37.7708 32.7879 37.7708Z" fill="#F96E9C"/>
<path d="M36.1807 42.2742C36.1515 42.2742 36.1222 42.2742 36.093 42.2742C35.5958 42.2742 35.1863 41.8674 35.1863 41.3735C35.1863 40.9087 35.5373 40.5309 35.976 40.4728C35.976 40.4438 35.976 40.3857 35.976 40.3566C35.976 39.8627 36.3855 39.4559 36.8827 39.4559C37.3214 39.4559 37.6724 39.7465 37.7602 40.1532C37.7894 40.1532 37.8187 40.1532 37.8479 40.1532C38.3451 40.1532 38.7546 40.56 38.7546 41.0539C38.7546 41.5188 38.4036 41.8965 37.9649 41.9546C37.9649 41.9837 37.9649 42.0418 37.9649 42.0708C37.9649 42.5648 37.5554 42.9715 37.0582 42.9715C36.6195 43.0006 36.2685 42.681 36.1807 42.2742Z" fill="#DCC3E2"/>
<path d="M36.912 41.8094C36.5903 41.8094 36.327 41.5188 36.327 41.1992C36.327 41.0539 36.4148 40.8796 36.5318 40.7924C36.6488 40.6762 36.795 40.6181 36.9705 40.6472C37.1167 40.6472 37.2922 40.7343 37.38 40.8506C37.497 40.9668 37.5555 41.112 37.5262 41.2864C37.5262 41.5769 37.263 41.8094 36.912 41.8094C36.9413 41.8094 36.9413 41.8094 36.912 41.8094Z" fill="#F96E9C"/>
<path d="M32.1152 47.5621C32.0859 47.5621 32.0567 47.5621 32.0274 47.5621C31.5302 47.5621 31.1207 47.1553 31.1207 46.6614C31.1207 46.1965 31.4717 45.8188 31.9104 45.7607C31.9104 45.7316 31.9104 45.6735 31.9104 45.6445C31.9104 45.1505 32.3199 44.7438 32.8172 44.7438C33.2559 44.7438 33.6069 45.0343 33.6946 45.4411C33.7239 45.4411 33.7531 45.4411 33.7824 45.4411C34.2796 45.4411 34.6891 45.8478 34.6891 46.3418C34.6891 46.8066 34.3381 47.1843 33.8994 47.2425C33.8994 47.2715 33.8994 47.3296 33.8994 47.3587C33.8994 47.8526 33.4899 48.2594 32.9926 48.2594C32.5539 48.2884 32.2029 47.9688 32.1152 47.5621Z" fill="#DCC3E2"/>
<path d="M32.8756 47.0972C32.5539 47.0972 32.2906 46.8066 32.2906 46.487C32.2906 46.3418 32.3784 46.1675 32.4954 46.0803C32.6124 45.9641 32.7586 45.906 32.9341 45.935C33.0804 45.935 33.2559 46.0222 33.3436 46.1384C33.4606 46.2546 33.5191 46.3999 33.4898 46.5742C33.4606 46.8648 33.1974 47.0972 32.8756 47.0972Z" fill="#F96E9C"/>
<path d="M31.8811 11.2731C31.8811 11.5346 32.0858 11.738 32.3491 11.738C32.3783 11.738 32.3783 11.738 32.4076 11.738C32.4661 11.9414 32.6416 12.1157 32.8756 12.1157C33.1388 12.1157 33.3435 11.9123 33.3435 11.6508C33.3435 11.6218 33.3435 11.6218 33.3435 11.5927C33.5775 11.5637 33.753 11.3603 33.753 11.1279C33.753 10.8664 33.5483 10.663 33.285 10.663C33.2558 10.663 33.2558 10.663 33.2265 10.663C33.168 10.4596 32.9926 10.2853 32.7586 10.2853C32.4953 10.2853 32.2906 10.4887 32.2906 10.7501C32.2906 10.7792 32.2906 10.7792 32.2906 10.8083C32.0566 10.8664 31.8811 11.0407 31.8811 11.2731ZM32.5538 11.186C32.5538 11.0988 32.5831 11.0407 32.6416 10.9826C32.7001 10.9245 32.7586 10.8954 32.8463 10.8954C32.9341 10.8954 32.9926 10.9245 33.0511 10.9826C33.1096 11.0407 33.1388 11.0988 33.1388 11.186C33.1388 11.3312 33.0218 11.4475 32.8756 11.4475C32.6708 11.4765 32.5538 11.3603 32.5538 11.186Z" fill="#79478C"/>
<path d="M35.2155 17.4617C34.5135 17.8103 33.636 18.9144 33.8115 19.6989C34.0163 20.6577 34.9815 21.2678 35.3032 22.1975C35.6542 23.1854 35.1277 24.4347 34.1625 24.8705" stroke="#777F46" stroke-width="0.5" stroke-miterlimit="10"/>
<path d="M35.625 19.2631C35.625 19.5246 35.8297 19.728 36.093 19.728C36.1222 19.728 36.1222 19.728 36.1515 19.728C36.21 19.9314 36.3855 20.1057 36.6195 20.1057C36.8827 20.1057 37.0874 19.9023 37.0874 19.6408C37.0874 19.6118 37.0874 19.6118 37.0874 19.5827C37.3214 19.5537 37.4969 19.3503 37.4969 19.1178C37.4969 18.8564 37.2922 18.653 37.0289 18.653C36.9997 18.653 36.9997 18.653 36.9704 18.653C36.9119 18.4496 36.7365 18.2753 36.5025 18.2753C36.2392 18.2753 36.0345 18.4786 36.0345 18.7401C36.0345 18.7692 36.0345 18.7692 36.0345 18.7982C35.8297 18.8273 35.625 19.0016 35.625 19.2631ZM36.2977 19.1469C36.2977 19.0597 36.327 19.0016 36.3855 18.9435C36.444 18.8854 36.5025 18.8564 36.5902 18.8564C36.678 18.8564 36.7365 18.8854 36.795 18.9435C36.8534 19.0016 36.8827 19.0597 36.8827 19.1469C36.8827 19.2922 36.7657 19.4084 36.6195 19.4084C36.4147 19.4374 36.2977 19.3212 36.2977 19.1469Z" fill="#79478C"/>
<path d="M36.0052 31.6692C36.0052 31.9307 36.21 32.1341 36.4732 32.1341C36.5025 32.1341 36.5025 32.1341 36.5317 32.1341C36.5902 32.3375 36.7657 32.5118 36.9997 32.5118C37.2629 32.5118 37.4677 32.3084 37.4677 32.047C37.4677 32.0179 37.4677 32.0179 37.4677 31.9888C37.7017 31.9598 37.8772 31.7564 37.8772 31.524C37.8772 31.2625 37.6724 31.0591 37.4092 31.0591C37.3799 31.0591 37.3799 31.0591 37.3507 31.0591C37.2922 30.8557 37.1167 30.6814 36.8827 30.6814C36.6195 30.6814 36.4147 30.8848 36.4147 31.1463C36.4147 31.1753 36.4147 31.1753 36.4147 31.2044C36.1807 31.2334 36.0052 31.4368 36.0052 31.6692ZM36.678 31.5821C36.678 31.4949 36.7072 31.4368 36.7657 31.3787C36.8242 31.3206 36.8827 31.2915 36.9705 31.2915C37.0582 31.2915 37.1167 31.3206 37.1752 31.3787C37.2337 31.4368 37.2629 31.4949 37.2629 31.5821C37.2629 31.7274 37.146 31.8436 36.9997 31.8436C36.795 31.8726 36.6487 31.7274 36.678 31.5821Z" fill="#79478C"/>
<path d="M32.1444 35.1558C32.1444 35.4173 32.3492 35.6207 32.6124 35.6207C32.6416 35.6207 32.6416 35.6207 32.6709 35.6207C32.7294 35.8241 32.9049 35.9984 33.1389 35.9984C33.4021 35.9984 33.6068 35.795 33.6068 35.5335C33.6068 35.5045 33.6068 35.5045 33.6068 35.4754C33.8408 35.4464 34.0163 35.243 34.0163 35.0105C34.0163 34.7491 33.8116 34.5457 33.5483 34.5457C33.5191 34.5457 33.5191 34.5457 33.4899 34.5457C33.4314 34.3423 33.2559 34.168 33.0219 34.168C32.7586 34.168 32.5539 34.3713 32.5539 34.6328C32.5539 34.6619 32.5539 34.6619 32.5539 34.6909C32.3199 34.72 32.1444 34.9234 32.1444 35.1558ZM32.7879 35.0396C32.7879 34.9524 32.8171 34.8943 32.8756 34.8362C32.9341 34.7781 32.9926 34.7491 33.0804 34.7491C33.1681 34.7491 33.2266 34.7781 33.2851 34.8362C33.3436 34.8943 33.3729 34.9524 33.3729 35.0396C33.3729 35.1849 33.2559 35.3011 33.1096 35.3011C32.9049 35.3301 32.7879 35.2139 32.7879 35.0396Z" fill="#79478C"/>
<path d="M34.2211 46.9229C34.2211 47.1844 34.4258 47.3878 34.689 47.3878C34.7183 47.3878 34.7183 47.3878 34.7475 47.3878C34.806 47.5912 34.9815 47.7655 35.2155 47.7655C35.4788 47.7655 35.6835 47.5621 35.6835 47.3006C35.6835 47.2716 35.6835 47.2716 35.6835 47.2425C35.9175 47.2135 36.093 47.0101 36.093 46.7776C36.093 46.5161 35.8882 46.3128 35.625 46.3128C35.5958 46.3128 35.5958 46.3128 35.5665 46.3128C35.508 46.1094 35.3325 45.9351 35.0985 45.9351C34.8353 45.9351 34.6306 46.1384 34.6306 46.3999C34.6306 46.429 34.6306 46.429 34.6306 46.458C34.3966 46.4871 34.2211 46.6905 34.2211 46.9229ZM34.8938 46.8357C34.8938 46.7486 34.923 46.6905 34.9815 46.6324C35.04 46.5743 35.0985 46.5452 35.1863 46.5452C35.274 46.5452 35.3325 46.5743 35.391 46.6324C35.4495 46.6905 35.4788 46.7486 35.4788 46.8357C35.4788 46.981 35.3618 47.0972 35.2155 47.0972C34.9815 47.0972 34.8645 46.981 34.8938 46.8357Z" fill="#79478C"/>
<path d="M31.7642 44.3079C31.7642 44.5694 31.9689 44.7728 32.2321 44.7728C32.2614 44.7728 32.2614 44.7728 32.2906 44.7728C32.3491 44.9762 32.5246 45.1505 32.7586 45.1505C33.0219 45.1505 33.2266 44.9471 33.2266 44.6856C33.2266 44.6566 33.2266 44.6566 33.2266 44.6275C33.4606 44.5985 33.6361 44.3951 33.6361 44.1626C33.6361 43.9012 33.4313 43.6978 33.1681 43.6978C33.1389 43.6978 33.1389 43.6978 33.1096 43.6978C33.0511 43.4944 32.8756 43.3201 32.6416 43.3201C32.3784 43.3201 32.1736 43.5234 32.1736 43.7849C32.1736 43.814 32.1736 43.814 32.1736 43.843C31.9689 43.8721 31.7642 44.0755 31.7642 44.3079ZM32.4369 44.2208C32.4369 44.1336 32.4661 44.0755 32.5246 44.0174C32.5831 43.9593 32.6416 43.9302 32.7294 43.9302C32.8171 43.9302 32.8756 43.9593 32.9341 44.0174C32.9926 44.0755 33.0219 44.1336 33.0219 44.2208C33.0219 44.366 32.9049 44.4822 32.7586 44.4822C32.5539 44.4822 32.4369 44.366 32.4369 44.2208Z" fill="#79478C"/>
<path d="M35.5372 43.233C35.5372 43.4945 35.742 43.6978 36.0052 43.6978C36.0345 43.6978 36.0345 43.6978 36.0637 43.6978C36.1222 43.9012 36.2977 44.0755 36.5317 44.0755C36.7949 44.0755 36.9997 43.8722 36.9997 43.6107C36.9997 43.5816 36.9997 43.5816 36.9997 43.5526C37.2337 43.5235 37.4092 43.3201 37.4092 43.0877C37.4092 42.8262 37.2044 42.6228 36.9412 42.6228C36.9119 42.6228 36.9119 42.6228 36.8827 42.6228C36.8242 42.4194 36.6487 42.2451 36.4147 42.2451C36.1515 42.2451 35.9467 42.4485 35.9467 42.71C35.9467 42.739 35.9467 42.739 35.9467 42.7681C35.7127 42.7972 35.5372 43.0005 35.5372 43.233ZM36.21 43.1458C36.21 43.0586 36.2392 43.0005 36.2977 42.9424C36.3562 42.8843 36.4147 42.8553 36.5024 42.8553C36.5902 42.8553 36.6487 42.8843 36.7072 42.9424C36.7657 43.0005 36.7949 43.0586 36.7949 43.1458C36.7949 43.2911 36.6779 43.4073 36.5317 43.4073C36.3269 43.4073 36.1807 43.2911 36.21 43.1458Z" fill="#79478C"/>
<path d="M33.7531 38.0032C33.7531 38.2647 33.9578 38.4681 34.221 38.4681C34.2503 38.4681 34.2503 38.4681 34.2795 38.4681C34.338 38.6715 34.5135 38.8458 34.7475 38.8458C35.0107 38.8458 35.2155 38.6424 35.2155 38.3809C35.2155 38.3519 35.2155 38.3519 35.2155 38.3228C35.4495 38.2938 35.625 38.0904 35.625 37.858C35.625 37.5965 35.4202 37.3931 35.157 37.3931C35.1277 37.3931 35.1277 37.3931 35.0985 37.3931C35.04 37.1897 34.8645 37.0154 34.6305 37.0154C34.3673 37.0154 34.1625 37.2188 34.1625 37.4803C34.1625 37.5093 34.1625 37.5093 34.1625 37.5384C33.9285 37.5674 33.7531 37.7708 33.7531 38.0032ZM34.3965 37.9161C34.3965 37.8289 34.4258 37.7708 34.4843 37.7127C34.5428 37.6546 34.6013 37.6255 34.689 37.6255C34.7768 37.6255 34.8353 37.6546 34.8938 37.7127C34.9523 37.7708 34.9815 37.8289 34.9815 37.9161C34.9815 38.0613 34.8645 38.1776 34.7183 38.1776C34.5135 38.2066 34.3965 38.0613 34.3965 37.9161Z" fill="#79478C"/>
<path d="M34.7768 18.6529C34.7476 18.6529 34.7183 18.6529 34.6891 18.6529C34.6306 18.6238 34.6013 18.5367 34.6013 18.5367C34.5721 18.1009 34.9523 17.8103 35.1571 17.6941C35.1863 17.6941 35.1863 17.6941 35.2155 17.6941C35.2155 17.6941 35.2448 17.7231 35.2448 17.7522C35.1863 18.1009 35.0108 18.5367 34.8353 18.6529C34.8061 18.6529 34.8061 18.6529 34.7768 18.6529Z" fill="#777F46"/>
<path d="M35.4203 18.5948C35.3911 18.6238 35.3911 18.6238 35.3618 18.6529C35.3326 18.6529 35.2741 18.6238 35.2741 18.6238C35.1278 18.3914 35.2448 18.0427 35.3326 17.8975L35.3618 17.8684C35.3618 17.8684 35.3911 17.8684 35.3911 17.8975C35.4788 18.1008 35.5081 18.4495 35.4203 18.5657C35.4496 18.5657 35.4203 18.5657 35.4203 18.5948Z" fill="#ACC172"/>
<path d="M35.508 31.553C35.4788 31.553 35.4495 31.553 35.4203 31.553C35.3618 31.524 35.3325 31.4368 35.3325 31.4368C35.3033 31.001 35.6835 30.7105 35.8883 30.5942C35.9175 30.5942 35.9175 30.5942 35.9468 30.5942C35.9468 30.5942 35.976 30.6233 35.976 30.6523C35.9175 31.001 35.742 31.4368 35.5665 31.553C35.5373 31.553 35.5373 31.553 35.508 31.553Z" fill="#777F46"/>
<path d="M36.1807 31.4949C36.1515 31.524 36.1515 31.524 36.1222 31.553C36.093 31.553 36.0345 31.524 36.0345 31.524C35.8882 31.2915 36.0052 30.9429 36.093 30.7976L36.1222 30.7686C36.1222 30.7686 36.1515 30.7686 36.1515 30.7976C36.2392 31.001 36.2685 31.3496 36.1807 31.4659C36.1807 31.4659 36.1807 31.4659 36.1807 31.4949Z" fill="#ACC172"/>
<path d="M34.7183 12.9583L34.6891 12.9873C34.6306 13.0454 34.5721 13.0745 34.5136 13.0454C34.4258 13.0164 34.3966 12.9292 34.3966 12.9292C34.2503 12.4353 34.6306 11.9123 34.8353 11.7089C34.8645 11.6799 34.8645 11.6799 34.8938 11.7089C34.923 11.7089 34.923 11.738 34.923 11.767C34.9523 12.1738 34.8938 12.7258 34.7183 12.9583Z" fill="#ACC172"/>
<path d="M34.0455 12.5806C34.0163 12.5806 33.987 12.5806 33.9578 12.5516C33.8993 12.5225 33.8993 12.4353 33.8993 12.4353C33.8701 12.0576 34.221 11.8252 34.3965 11.7671H34.4258C34.4258 11.7671 34.455 11.7961 34.4258 11.8252C34.3673 12.1157 34.221 12.4934 34.0455 12.5806Z" fill="#777F46"/>
<path d="M34.2503 24.609C34.2211 24.6381 34.1918 24.6381 34.1918 24.609C34.1626 24.609 34.1626 24.58 34.1626 24.5509C34.2211 24.1732 34.4843 23.4178 35.0108 23.1854C35.0108 23.1854 35.1278 23.1563 35.1863 23.2144C35.2156 23.2435 35.2448 23.3306 35.2156 23.4178C35.2156 23.4469 35.2156 23.4469 35.1863 23.4759C35.0986 23.8246 34.6306 24.3185 34.2503 24.609Z" fill="#ACC172"/>
<path d="M34.5135 23.1563C34.5428 23.3597 34.2795 23.7955 34.0456 24.0861C34.0456 24.1151 34.0163 24.1151 33.9871 24.1151C33.9578 24.1151 33.9578 24.1151 33.9578 24.0861C33.9286 23.8536 33.9286 23.3597 34.2795 23.0692C34.2795 23.0692 34.3673 23.0111 34.4258 23.0401C34.455 23.0401 34.4843 23.0692 34.4843 23.0982C34.5135 23.1273 34.5135 23.1563 34.5135 23.1563Z" fill="#777F46"/>
<path d="M34.0163 34.7781C33.9871 34.8072 33.9578 34.8072 33.9578 34.7781C33.9286 34.7781 33.9286 34.749 33.9286 34.72C33.9871 34.3423 34.2503 33.5869 34.7768 33.3544C34.7768 33.3544 34.8938 33.3254 34.9523 33.3835C34.9815 33.4125 35.0108 33.4997 34.9815 33.5869C34.9815 33.6159 34.9815 33.6159 34.9523 33.645C34.8645 33.9936 34.3966 34.4876 34.0163 34.7781Z" fill="#ACC172"/>
<path d="M34.2795 33.3254C34.3088 33.5288 34.0455 33.9646 33.8115 34.2551C33.8115 34.2842 33.7823 34.2842 33.753 34.2842C33.7238 34.2842 33.7238 34.2842 33.7238 34.2551C33.6945 34.0227 33.6945 33.5288 34.0455 33.2382C34.0455 33.2382 34.1333 33.1801 34.1918 33.2092C34.221 33.2092 34.2503 33.2382 34.2503 33.2673C34.2795 33.2963 34.2795 33.3254 34.2795 33.3254Z" fill="#777F46"/>
<path d="M34.2503 45.4411C34.2211 45.4701 34.2211 45.4701 34.1918 45.4701C34.1626 45.4701 34.1626 45.4411 34.1626 45.4411C34.1333 45.1215 34.1626 44.3951 34.572 44.0755C34.572 44.0755 34.6598 44.0174 34.7475 44.0465C34.806 44.0755 34.8353 44.1336 34.8353 44.2208C34.8353 44.2498 34.8353 44.2498 34.8353 44.2789C34.806 44.5694 34.5135 45.1215 34.2503 45.4411Z" fill="#ACC172"/>
<path d="M34.1333 44.1627C34.1918 44.3371 34.104 44.7729 33.9578 45.0634C33.9578 45.0925 33.9285 45.0925 33.9285 45.0925C33.8993 45.0925 33.8993 45.0925 33.8993 45.0634C33.8116 44.8891 33.6946 44.4533 33.9285 44.1337C33.9285 44.1337 33.987 44.0756 34.0455 44.0756C34.0748 44.0756 34.104 44.1046 34.1333 44.1337C34.1333 44.1337 34.1333 44.1337 34.1333 44.1627Z" fill="#777F46"/>
<path d="M35.8883 10.3434C35.8883 10.3143 35.9175 10.3143 35.9468 10.3143C35.976 10.3143 35.976 10.3434 35.976 10.3434C36.0638 10.6339 36.1808 11.215 35.859 11.5056C35.859 11.5056 35.7713 11.5637 35.7128 11.5056C35.6543 11.4765 35.625 11.4475 35.5958 11.3603C35.5958 11.3312 35.5958 11.3312 35.5958 11.3022C35.508 11.0697 35.6835 10.6339 35.8883 10.3434Z" fill="#ACC172"/>
<path d="M36.2393 11.4474C36.1515 11.3022 36.1515 10.9535 36.2393 10.692C36.2393 10.663 36.2685 10.663 36.2685 10.663H36.2978C36.4148 10.8082 36.6195 11.1859 36.444 11.4474C36.444 11.4474 36.3855 11.5055 36.3563 11.5055C36.327 11.5055 36.2978 11.4765 36.2685 11.4765C36.2685 11.4474 36.2685 11.4474 36.2393 11.4474Z" fill="#777F46"/>
<path d="M34.2796 15.515C34.0749 15.3988 33.8994 14.8758 33.8701 14.44C33.8701 14.411 33.8701 14.3819 33.8994 14.3819C33.8994 14.3528 33.9286 14.3528 33.9579 14.3819C34.1919 14.4981 34.6013 14.8758 34.5428 15.3988C34.5428 15.3988 34.5136 15.515 34.4551 15.5441C34.4258 15.5731 34.3966 15.5731 34.3381 15.5441C34.3088 15.515 34.2796 15.515 34.2796 15.515Z" fill="#777F46"/>
<path d="M33.5776 15.3698C33.5191 15.1955 33.5483 14.8178 33.6653 14.5853L33.6946 14.5563C33.6946 14.5563 33.7238 14.5563 33.7238 14.5853C33.8116 14.7597 33.9286 15.1955 33.7531 15.4279C33.7531 15.4279 33.7238 15.486 33.6653 15.457C33.6361 15.457 33.6068 15.4279 33.6068 15.3989C33.5776 15.3989 33.5776 15.3698 33.5776 15.3698Z" fill="#ACC172"/>
<path d="M34.3381 27.195C34.1333 27.0787 33.9578 26.5558 33.9286 26.1199C33.9286 26.0909 33.9286 26.0618 33.9578 26.0618C33.9578 26.0328 33.9871 26.0328 34.0163 26.0618C34.2503 26.178 34.6598 26.5558 34.6013 27.0787C34.6013 27.0787 34.5721 27.195 34.5136 27.224C34.4843 27.2531 34.4551 27.2531 34.3966 27.224C34.3673 27.224 34.3381 27.195 34.3381 27.195Z" fill="#777F46"/>
<path d="M33.6361 27.0497C33.5776 26.8754 33.6068 26.4977 33.7238 26.2653L33.7531 26.2362C33.7531 26.2362 33.7823 26.2362 33.7823 26.2653C33.8701 26.4396 33.987 26.8754 33.8116 27.1078C33.8116 27.1078 33.7823 27.1659 33.7238 27.1369C33.6946 27.1369 33.6653 27.1078 33.6653 27.0788C33.6653 27.0788 33.6653 27.0788 33.6361 27.0497Z" fill="#ACC172"/>
<path d="M34.1918 40.037C33.9871 39.9208 33.8116 39.3978 33.7823 38.962C33.7823 38.9329 33.7823 38.9039 33.8116 38.9039C33.8116 38.8748 33.8408 38.8748 33.8701 38.9039C34.1041 39.0201 34.5136 39.3978 34.4551 39.9208C34.4551 39.9208 34.4258 40.037 34.3673 40.066C34.3381 40.0951 34.3088 40.0951 34.2503 40.066C34.2211 40.037 34.2211 40.037 34.1918 40.037Z" fill="#777F46"/>
<path d="M33.5191 39.8918C33.4606 39.7174 33.4899 39.3397 33.6069 39.1073L33.6361 39.0782C33.6361 39.0782 33.6654 39.0782 33.6654 39.1073C33.7531 39.2816 33.8701 39.7174 33.6946 39.9499C33.6946 39.9499 33.6654 40.008 33.6069 39.9789C33.5776 39.9789 33.5484 39.9499 33.5484 39.9208C33.5191 39.9208 33.5191 39.8918 33.5191 39.8918Z" fill="#ACC172"/>
<path d="M32.4954 27.4855C32.4954 27.747 32.7001 27.9504 32.9633 27.9504C32.9926 27.9504 32.9926 27.9504 33.0218 27.9504C33.0803 28.1538 33.2558 28.3281 33.4898 28.3281C33.7531 28.3281 33.9578 28.1247 33.9578 27.8632C33.9578 27.8342 33.9578 27.8342 33.9578 27.8051C34.1918 27.7761 34.3673 27.5727 34.3673 27.3403C34.3673 27.0788 34.1625 26.8754 33.8993 26.8754C33.8701 26.8754 33.8701 26.8754 33.8408 26.8754C33.7823 26.672 33.6068 26.4977 33.3728 26.4977C33.1096 26.4977 32.9048 26.7011 32.9048 26.9626C32.9048 26.9916 32.9048 26.9916 32.9048 27.0207C32.6709 27.0497 32.4954 27.2531 32.4954 27.4855ZM33.1388 27.3984C33.1388 27.3112 33.1681 27.2531 33.2266 27.195C33.2851 27.1369 33.3436 27.1078 33.4313 27.1078C33.5191 27.1078 33.5776 27.1369 33.6361 27.195C33.6946 27.2531 33.7238 27.3112 33.7238 27.3984C33.7238 27.5436 33.6068 27.6599 33.4606 27.6599C33.2558 27.6889 33.1388 27.5436 33.1388 27.3984Z" fill="#79478C"/>
<path d="M35.5957 27.747C35.6249 27.7179 35.6542 27.6888 35.6834 27.6888C35.7712 27.6888 35.8297 27.747 35.8589 27.776C36.2099 28.2118 36.1806 28.7929 36.0929 29.0544C36.0929 29.0835 36.0636 29.0835 36.0636 29.0835C36.0344 29.0835 36.0344 29.0544 36.0052 29.0253C35.7712 28.6186 35.5372 28.0375 35.5957 27.8051C35.5664 27.776 35.5664 27.776 35.5957 27.747Z" fill="#777F46"/>
<path d="M35.157 28.299C35.157 28.2699 35.157 28.2408 35.157 28.2118C35.1862 28.1827 35.2447 28.1827 35.2447 28.1827C35.5372 28.299 35.7127 28.7638 35.7712 28.9672C35.7712 28.9963 35.7712 28.9963 35.7712 28.9963H35.742C35.508 28.8219 35.2447 28.5314 35.1862 28.328C35.157 28.328 35.157 28.328 35.157 28.299Z" fill="#ACC172"/>
<path d="M35.625 27.7761C35.625 28.0375 35.8297 28.2409 36.093 28.2409C36.1222 28.2409 36.1222 28.2409 36.1515 28.2409C36.21 28.4443 36.3855 28.6186 36.6195 28.6186C36.8827 28.6186 37.0874 28.4153 37.0874 28.1538C37.0874 28.1247 37.0874 28.1247 37.0874 28.0957C37.3214 28.0666 37.4969 27.8632 37.4969 27.6308C37.4969 27.3693 37.2922 27.1659 37.0289 27.1659C36.9997 27.1659 36.9997 27.1659 36.9704 27.1659C36.9119 26.9625 36.7365 26.7882 36.5025 26.7882C36.2392 26.7882 36.0345 26.9916 36.0345 27.2531C36.0345 27.2821 36.0345 27.2821 36.0345 27.3112C35.8297 27.3402 35.625 27.5436 35.625 27.7761ZM36.2977 27.6889C36.2977 27.6017 36.327 27.5436 36.3855 27.4855C36.444 27.4274 36.5025 27.3984 36.5902 27.3984C36.678 27.3984 36.7365 27.4274 36.795 27.4855C36.8534 27.5436 36.8827 27.6017 36.8827 27.6889C36.8827 27.8342 36.7657 27.9504 36.6195 27.9504C36.4147 27.9504 36.2977 27.8342 36.2977 27.6889Z" fill="#79478C"/>
</g>
<defs>
<clipPath id="clip0_98_184">
<rect width="95" height="55" fill="white"/>
</clipPath>
</defs>
</svg>
