<svg width="35" height="28" viewBox="0 0 35 28" fill="none" xmlns="http://www.w3.org/2000/svg">
<path d="M0 3.5C0 1.575 1.575 0 3.5 0H31.5C32.4283 0 33.3185 0.368749 33.9749 1.02513C34.6312 1.6815 35 2.57174 35 3.5V24.5C35 25.4283 34.6312 26.3185 33.9749 26.9749C33.3185 27.6313 32.4283 28 31.5 28H3.5C2.57174 28 1.6815 27.6313 1.02513 26.9749C0.368749 26.3185 0 25.4283 0 24.5V3.5ZM19.25 19.25L14 14L3.5 24.5H31.5L22.75 15.75L19.25 19.25ZM26.25 12.25C27.1783 12.25 28.0685 11.8813 28.7249 11.2249C29.3813 10.5685 29.75 9.67826 29.75 8.75C29.75 7.82174 29.3813 6.9315 28.7249 6.27513C28.0685 5.61875 27.1783 5.25 26.25 5.25C25.3217 5.25 24.4315 5.61875 23.7751 6.27513C23.1187 6.9315 22.75 7.82174 22.75 8.75C22.75 9.67826 23.1187 10.5685 23.7751 11.2249C24.4315 11.8813 25.3217 12.25 26.25 12.25Z" fill="#8E9B5A"/>
</svg>
