<svg width="24" height="21" viewBox="0 0 24 21" fill="none" xmlns="http://www.w3.org/2000/svg">
<path d="M12 3.31067L11.3972 3.89113C11.4753 3.97216 11.5689 4.03661 11.6725 4.08063C11.7761 4.12465 11.8875 4.14734 12 4.14734C12.1125 4.14734 12.2239 4.12465 12.3275 4.08063C12.4311 4.03661 12.5247 3.97216 12.6028 3.89113L12 3.31067ZM6.41972 15.5004C6.24801 15.3592 6.02723 15.292 5.80595 15.3136C5.58468 15.3351 5.38103 15.4437 5.23981 15.6154C5.0986 15.7871 5.03137 16.0079 5.05294 16.2292C5.0745 16.4505 5.18308 16.6541 5.35479 16.7953L6.41972 15.5004ZM1.21898 12.1416C1.27175 12.238 1.343 12.3231 1.42867 12.392C1.51434 12.461 1.61275 12.5123 1.71827 12.5432C1.82379 12.5741 1.93436 12.5839 2.04367 12.5721C2.15298 12.5602 2.25889 12.527 2.35535 12.4742C2.45181 12.4214 2.53692 12.3502 2.60584 12.2645C2.67476 12.1788 2.72614 12.0804 2.75702 11.9749C2.78791 11.8694 2.79772 11.7588 2.78587 11.6495C2.77403 11.5402 2.74077 11.4343 2.688 11.3378L1.21898 12.1416ZM1.67442 7.37057C1.67442 4.97057 3.0307 2.95681 4.8826 2.10955C6.68205 1.28685 9.09991 1.50453 11.3972 3.89113L12.6028 2.73132C9.87907 -0.100681 6.7133 -0.568402 4.18605 0.586947C1.7146 1.71774 0 4.34323 0 7.37057H1.67442ZM8.08967 18.9386C8.66233 19.3896 9.27628 19.8696 9.89805 20.2335C10.5198 20.5962 11.2298 20.8921 12 20.8921V19.2176C11.654 19.2176 11.2476 19.0837 10.7431 18.7879C10.2374 18.4932 9.71386 18.0869 9.1267 17.6236L8.08967 18.9386ZM15.9103 18.9386C17.5021 17.6828 19.5382 16.245 21.1345 14.4467C22.7609 12.616 24 10.3466 24 7.37057H22.3256C22.3256 9.82304 21.3209 11.714 19.8832 13.3349C18.4153 14.9869 16.5656 16.2896 14.8733 17.6236L15.9103 18.9386ZM24 7.37057C24 4.34323 22.2865 1.71774 19.814 0.586947C17.2867 -0.568402 14.1232 -0.100681 11.3972 2.7302L12.6028 3.89113C14.9001 1.50564 17.318 1.28685 19.1174 2.10955C20.9693 2.95681 22.3256 4.96946 22.3256 7.37057H24ZM14.8733 17.6236C14.2861 18.0869 13.7626 18.4932 13.2569 18.7879C12.7524 19.0826 12.346 19.2176 12 19.2176V20.8921C12.7702 20.8921 13.4802 20.5962 14.102 20.2335C14.7248 19.8696 15.3377 19.3896 15.9103 18.9386L14.8733 17.6236ZM9.1267 17.6236C8.23814 16.9237 7.33507 16.2539 6.41972 15.5004L5.35479 16.7953C6.2813 17.5577 7.2614 18.2856 8.08967 18.9386L9.12781 17.6236H9.1267ZM2.688 11.3389C2.01556 10.1249 1.66653 8.75838 1.67442 7.37057H0C0 9.19904 0.468837 10.7708 1.21898 12.1416L2.688 11.3378V11.3389Z" fill="#545454"/>
</svg>
